HIERARCHY
ROOT Hips
{
	OFFSET 62.890800 8.863803 43.568401
	CHANNELS 6 Xposition Yposition Zposition Zrotation Xrotation Yrotation
	JOINT Chest
	{
		OFFSET -0.160400 1.630001 7.806301
		CHANNELS 6 Xposition Yposition Zposition Zrotation Xrotation Yrotation
		JOINT Chest2
		{
			OFFSET 0.000000 0.000000 3.197998
			CHANNELS 6 Xposition Yposition Zposition Zrotation Xrotation Yrotation
			JOINT Neck
			{
				OFFSET 0.000000 0.000001 7.440701
				CHANNELS 6 Xposition Yposition Zposition Zrotation Xrotation Yrotation
				JOINT Head
				{
					OFFSET 0.000000 0.000000 2.173901
					CHANNELS 6 Xposition Yposition Zposition Zrotation Xrotation Yrotation
					End Site
					{
						OFFSET 0.000000 0.000001 10.420303
					}
				}
			}
			JOINT LeftCollar
			{
				OFFSET 2.426399 -1.880099 4.759399
				CHANNELS 6 Xposition Yposition Zposition Zrotation Xrotation Yrotation
				JOINT LeftShoulder
				{
					OFFSET 4.420197 0.000000 0.000000
					CHANNELS 6 Xposition Yposition Zposition Zrotation Xrotation Yrotation
					JOINT LeftElbow
					{
						OFFSET 0.000000 -0.000001 -10.347099
						CHANNELS 6 Xposition Yposition Zposition Zrotation Xrotation Yrotation
						JOINT LeftWrist
						{
							OFFSET 0.000000 -0.000001 -12.496300
							CHANNELS 6 Xposition Yposition Zposition Zrotation Xrotation Yrotation
							End Site
							{
								OFFSET 0.000000 0.000000 -2.173901
							}
						}
					}
				}
			}
			JOINT RightCollar
			{
				OFFSET -2.781502 -1.903799 5.072601
				CHANNELS 6 Xposition Yposition Zposition Zrotation Xrotation Yrotation
				JOINT RightShoulder
				{
					OFFSET -4.012100 0.000000 0.000000
					CHANNELS 6 Xposition Yposition Zposition Zrotation Xrotation Yrotation
					JOINT RightElbow
					{
						OFFSET 0.000000 -0.000001 -10.346600
						CHANNELS 6 Xposition Yposition Zposition Zrotation Xrotation Yrotation
						JOINT RightWrist
						{
							OFFSET 0.000000 -0.000001 -12.562599
							CHANNELS 6 Xposition Yposition Zposition Zrotation Xrotation Yrotation
							End Site
							{
								OFFSET 0.000000 0.000000 -2.173901
							}
						}
					}
				}
			}
		}
	}
	JOINT LeftHip
	{
		OFFSET 2.047997 -0.047200 -2.693199
		CHANNELS 6 Xposition Yposition Zposition Zrotation Xrotation Yrotation
		JOINT LeftKnee
		{
			OFFSET 0.000000 -0.000001 -18.824400
			CHANNELS 6 Xposition Yposition Zposition Zrotation Xrotation Yrotation
			JOINT LeftAnkle
			{
				OFFSET 0.000000 -0.000002 -19.078199
				CHANNELS 6 Xposition Yposition Zposition Zrotation Xrotation Yrotation
				End Site
				{
					OFFSET 0.000000 -9.342100 0.000001
				}
			}
		}
	}
	JOINT RightHip
	{
		OFFSET -2.129898 -0.022300 -2.538300
		CHANNELS 6 Xposition Yposition Zposition Zrotation Xrotation Yrotation
		JOINT RightKnee
		{
			OFFSET 0.000000 -0.000001 -18.644600
			CHANNELS 6 Xposition Yposition Zposition Zrotation Xrotation Yrotation
			JOINT RightAnkle
			{
				OFFSET 0.000000 -0.000002 -18.801399
				CHANNELS 6 Xposition Yposition Zposition Zrotation Xrotation Yrotation
				End Site
				{
					OFFSET 0.000000 -8.914600 0.000001
				}
			}
		}
	}
}
MOTION
Frames: 8
Frame Time: 0.041667
71.664597 -27.851501 45.070629 2842.041277 0.058085 349.815542 -0.160414 1.630000 7.806307 -11.148063 4.424267 -2.205886 0.000003 -0.000001 3.197996 3.860458 -2.478243 0.364039 -0.000003 0.000005 7.440702 -46.530442 -4.184709 13.435471 -0.000007 0.000010 2.173901 -4.909248 -2.448122 -3.692875 2.426403 -1.880103 4.759394 -172.499037 183.542264 -197.632671 4.420196 -0.000000 -0.000005 -7.794322 -10.812668 -102.067171 -0.000000 -0.000002 -10.347076 596.261089 -159.718892 -533.780049 -0.000007 -0.000012 -12.496299 68.361068 -1.186190 -5.307378 -2.781498 -1.903801 5.072599 -184.105167 -185.124464 185.533729 -4.012092 0.000009 -0.000008 8.627356 -8.827377 460.015863 0.000005 -0.000002 -10.346603 -281.609492 -133.850247 -302.291714 -0.000001 0.000005 -12.562596 886.172293 558.443261 -897.030928 2.047988 -0.047198 -2.693197 704.243429 7.465927 -13.573100 -0.000002 0.000000 -18.824398 -318.600867 8.865849 1.663846 -0.000009 0.000002 -19.078194 -393.557467 52.452475 17.852564 -2.129897 -0.022299 -2.538298 -731.161751 -8.146049 21.939350 0.000002 -0.000005 -18.644604 144.103126 -193.373925 180.095027 -0.000005 0.000001 -18.801399 223.389069 151.730549 185.259783
71.663399 -27.823692 45.073235 2842.093514 0.045916 349.810488 -0.160407 1.630001 7.806306 -11.157469 4.470042 -2.053101 0.000007 0.000005 3.198000 3.924932 -2.513790 0.359874 0.000001 0.000002 7.440706 -46.719638 -4.139454 13.381456 -0.000000 -0.000003 2.173908 -4.796798 -2.361185 -3.718724 2.426399 -1.880101 4.759401 -172.359236 183.708361 -197.924320 4.420204 -0.000003 0.000002 -8.320034 -11.022453 -101.816694 0.000000 0.000002 -10.347079 596.306005 -159.573122 -533.659346 -0.000002 -0.000008 -12.496305 68.209356 -1.212618 -5.295869 -2.781498 -1.903798 5.072604 -184.143785 -185.076229 185.343016 -4.012098 0.000003 -0.000008 8.840291 -8.736343 460.187875 -0.000003 0.000003 -10.346599 -281.349890 -133.739858 -302.142270 0.000002 0.000001 -12.562593 886.001320 558.397908 -896.936726 2.047992 -0.047194 -2.693199 704.634663 7.258247 -13.663422 0.000000 -0.000006 -18.824406 -318.750913 8.928108 1.563738 -0.000003 -0.000005 -19.078201 -393.915150 52.462147 18.098055 -2.129895 -0.022296 -2.538294 -731.683414 -8.610836 21.845657 0.000015 -0.000002 -18.644600 145.017224 -193.812833 180.333387 -0.000003 -0.000005 -18.801399 222.961103 152.021487 185.467394
71.661301 -27.790001 45.075935 2842.139850 0.051680 349.894199 -0.160402 1.630002 7.806305 -11.095264 4.507498 -2.030306 -0.000003 0.000006 3.198006 3.950845 -2.538894 0.356541 0.000008 0.000002 7.440704 -46.963237 -4.114177 13.417208 -0.000007 0.000002 2.173914 -4.661937 -2.263251 -3.796258 2.426413 -1.880106 4.759397 -172.212811 183.835484 -198.137299 4.420191 0.000003 -0.000007 -8.976045 -11.340366 -101.624459 0.000007 -0.000000 -10.347090 596.242730 -159.460369 -533.607928 -0.000000 -0.000012 -12.496296 68.086133 -1.202371 -5.229490 -2.781493 -1.903800 5.072608 -184.174466 -185.046039 185.207587 -4.012095 0.000004 -0.000000 9.104897 -8.653205 460.409228 0.000000 -0.000002 -10.346598 -280.984775 -133.670900 -301.907421 -0.000002 -0.000001 -12.562594 885.864607 558.383920 -896.823837 2.048001 -0.047195 -2.693200 705.156216 7.004624 -13.809536 -0.000000 -0.000003 -18.824400 -318.885522 8.963922 1.391179 0.000004 0.000005 -19.078196 -394.426294 52.467468 18.486286 -2.129896 -0.022298 -2.538299 -732.045141 -8.980673 21.670570 -0.000001 -0.000004 -18.644596 146.020333 -194.243873 180.508513 -0.000002 0.000004 -18.801394 222.251036 152.344187 185.739263
71.658203 -27.750896 45.080433 2842.223998 0.051572 350.067084 -0.160396 1.629999 7.806305 -10.999892 4.561889 -2.127655 0.000004 0.000005 3.197999 3.929968 -2.575065 0.351877 -0.000001 0.000010 7.440701 -47.224526 -4.092208 13.534437 -0.000006 0.000000 2.173913 -4.530089 -2.191677 -3.948332 2.426398 -1.880093 4.759395 -172.037685 183.923921 -198.270338 4.420197 0.000001 -0.000002 -9.789031 -11.780494 -101.521097 0.000008 0.000008 -10.347090 596.080554 -159.408064 -533.599950 0.000000 -0.000001 -12.496291 67.930978 -1.174746 -5.105733 -2.781504 -1.903792 5.072599 -184.179452 -185.039619 185.096105 -4.012105 0.000001 -0.000001 9.382375 -8.572292 460.669649 -0.000002 -0.000001 -10.346603 -280.589717 -133.619032 -301.645852 0.000001 -0.000001 -12.562603 885.746472 558.446539 -896.761108 2.048012 -0.047198 -2.693198 705.765523 6.715474 -14.047265 0.000009 -0.000004 -18.824400 -319.083816 9.005518 1.181847 -0.000009 0.000002 -19.078199 -395.000987 52.462622 18.958908 -2.129889 -0.022298 -2.538298 -732.423806 -9.324104 21.395796 0.000005 -0.000007 -18.644604 146.805750 -194.657099 180.709279 0.000000 0.000002 -18.801399 221.724825 152.628486 185.994411
71.654602 -27.710697 45.084629 2842.331751 -0.003387 350.281552 -0.160407 1.629997 7.806299 -10.885579 4.685028 -2.255424 0.000008 0.000000 3.198003 3.884887 -2.624323 0.345858 -0.000013 0.000010 7.440698 -47.440681 -4.033863 13.657014 -0.000004 0.000001 2.173904 -4.543240 -2.143395 -4.196413 2.426392 -1.880099 4.759394 -171.934945 183.911682 -198.320813 4.420182 0.000002 -0.000002 -10.603337 -12.237095 -101.571067 -0.000008 0.000002 -10.347095 595.946900 -159.418678 -533.614376 -0.000007 0.000001 -12.496301 67.786376 -1.168299 -4.932156 -2.781518 -1.903799 5.072604 -184.146831 -185.064795 184.978147 -4.012095 -0.000003 -0.000000 9.672727 -8.505369 460.976024 0.000002 -0.000003 -10.346600 -280.041799 -133.671173 -301.277623 0.000008 -0.000003 -12.562597 885.645331 558.283161 -896.736301 2.047991 -0.047205 -2.693206 706.329314 6.494269 -14.297078 -0.000002 -0.000006 -18.824400 -319.231185 9.011201 0.973228 -0.000003 -0.000003 -19.078199 -395.593956 52.449026 19.529044 -2.129897 -0.022305 -2.538302 -732.815149 -9.602037 21.078947 0.000003 -0.000002 -18.644602 147.368558 -195.048278 180.946055 0.000000 0.000000 -18.801397 221.391621 152.863349 186.255447
71.652100 -27.671402 45.088936 2842.500702 -0.065589 350.473044 -0.160392 1.630000 7.806309 -10.785785 4.763284 -2.354798 0.000012 -0.000001 3.198003 3.818363 -2.661634 0.339361 0.000004 0.000021 7.440711 -47.577660 -3.906724 13.757612 -0.000002 -0.000004 2.173907 -4.516261 -2.139062 -4.389004 2.426413 -1.880089 4.759408 -171.948387 183.759519 -198.325252 4.420198 -0.000003 -0.000012 -11.373588 -12.717532 -101.749253 -0.000009 0.000009 -10.347088 595.746148 -159.468429 -533.686229 0.000006 0.000001 -12.496305 67.686485 -1.164346 -4.727074 -2.781499 -1.903787 5.072609 -184.092832 -185.118439 184.862266 -4.012102 0.000003 -0.000001 10.620569 -10.983263 461.531838 -0.000003 0.000001 -10.346601 -276.611351 -133.892390 -300.645939 -0.000004 -0.000004 -12.562596 885.727785 558.353048 -896.605599 2.047999 -0.047204 -2.693198 706.692189 6.330422 -14.497546 0.000001 -0.000008 -18.824402 -319.315496 8.968698 0.805225 -0.000002 -0.000003 -19.078199 -396.013029 52.467263 19.939998 -2.129899 -0.022305 -2.538297 -733.216928 -9.859330 20.798466 0.000001 -0.000011 -18.644598 147.756512 -195.417163 181.180439 -0.000003 -0.000005 -18.801399 221.179461 153.046617 186.537083
71.650299 -27.633102 45.092133 2842.717083 -0.141490 350.636941 -0.160406 1.630001 7.806305 -10.670720 4.803996 -2.444171 -0.000002 0.000001 3.198000 3.723622 -2.673412 0.333487 -0.000013 0.000009 7.440703 -47.617538 -3.737815 13.857097 -0.000008 -0.000009 2.173902 -4.541412 -2.165868 -4.591518 2.426383 -1.880098 4.759397 -172.098282 183.456764 -198.208770 4.420213 0.000004 -0.000004 -12.091792 -13.161864 -102.121164 0.000000 0.000010 -10.347110 595.549657 -159.578778 -533.823980 -0.000001 0.000002 -12.496298 67.633790 -1.146833 -4.520235 -2.781512 -1.903797 5.072598 -184.013889 -185.202232 184.775550 -4.012110 -0.000005 0.000001 10.955993 -10.954397 461.828158 -0.000007 -0.000000 -10.346594 -275.941227 -133.951389 -300.184874 -0.000002 -0.000003 -12.562605 885.825538 558.434791 -896.675212 2.047993 -0.047200 -2.693196 706.873325 6.223907 -14.656022 -0.000018 0.000000 -18.824402 -319.278286 8.902137 0.682354 -0.000009 -0.000002 -19.078194 -396.350932 52.460453 20.478012 -2.129909 -0.022299 -2.538301 -733.642312 -10.114869 20.552096 0.000006 -0.000006 -18.644594 148.063898 -195.793738 181.432473 -0.000001 -0.000004 -18.801397 221.023870 153.207550 186.850371
71.648201 -27.595497 45.096230 2842.961002 -0.253484 350.747071 -0.160410 1.629998 7.806296 -10.561009 4.867808 -2.447015 0.000001 0.000002 3.198000 3.626643 -2.699119 0.325848 -0.000008 0.000013 7.440685 -47.617142 -3.530982 13.918997 -0.000004 -0.000003 2.173903 -4.582217 -2.208810 -4.791177 2.426397 -1.880093 4.759387 -172.289404 183.135130 -198.144976 4.420194 0.000004 -0.000003 -12.791035 -13.592911 -102.492562 0.000010 0.000005 -10.347090 595.399393 -159.656478 -533.897145 -0.000001 -0.000005 -12.496304 67.483942 -1.175636 -4.449856 -2.781510 -1.903797 5.072597 -183.996799 -185.213270 184.699107 -4.012094 -0.000001 -0.000001 11.387960 -10.858129 462.037108 -0.000003 0.000004 -10.346607 -275.195425 -134.029567 -299.640235 -0.000002 -0.000004 -12.562601 886.073502 558.524677 -896.838809 2.047990 -0.047203 -2.693198 706.928950 6.182382 -14.751329 -0.000001 0.000002 -18.824402 -319.266210 8.835758 0.617680 -0.000010 0.000000 -19.078197 -396.458221 52.417064 20.998855 -2.129902 -0.022302 -2.538302 -734.022836 -10.324077 20.366402 0.000010 -0.000003 -18.644598 148.461415 -196.186911 181.676174 0.000000 -0.000009 -18.801397 220.696075 153.383127 187.232479
